<svg fill="#0f1d8a" height="256px" width="256px" version="1.1" id="Layer_1" xmlns="http://www.w3.org/2000/svg" xmlns:xlink="http://www.w3.org/1999/xlink" viewBox="-286.72 -286.72 1085.44 1085.44" xml:space="preserve" stroke="#0f1d8a"><g id="SVGRepo_bgCarrier" stroke-width="0" transform="translate(102.3998,102.3998), scale(0.6)"><rect x="-286.72" y="-286.72" width="1085.44" height="1085.44" rx="542.72" fill="#e3d4d4" strokewidth="0"></rect></g><g id="SVGRepo_tracerCarrier" stroke-linecap="round" stroke-linejoin="round" stroke="#ff0000" stroke-width="10.239980000000001"> <g> <g> <circle cx="256.001" cy="76.406" r="12.351"></circle> </g> </g> <g> <g> <circle cx="256.001" cy="127.721" r="12.351"></circle> </g> </g> <g> <g> <circle cx="256.001" cy="416.84" r="12.351"></circle> </g> </g> <g> <g> <path d="M255.999,166.156c-6.821,0-12.351,5.53-12.351,12.351v38.817c0,6.821,5.53,12.351,12.351,12.351 c6.821,0,12.351-5.53,12.351-12.351v-38.817C268.35,171.686,262.82,166.156,255.999,166.156z"></path> </g> </g> <g> <g> <path d="M504.076,267.55h-12.745c0.191-3.892,0.299-7.756,0.299-11.552s-0.108-7.661-0.299-11.552c0,0,12.682,0,12.748,0 c4.572,0,8.247-3.984,7.897-8.529c-2.272-29.511-9.507-58.056-21.506-84.84c-1.276-2.849-4.107-4.683-7.229-4.683h-18.551 c-4.184-7.941-8.849-15.661-13.942-23.105c0,0,10.543,0,10.616,0c6.479,0,10.211-7.798,6.207-12.843 c-8.873-12.841-18.971-24.951-30.02-36C396.938,33.834,345.559,8.555,288.967,1.342c-4.664-0.595-8.922,3.163-8.922,7.856v13.344 c-8.013-0.82-16.068-1.239-24.047-1.239c-7.979,0-16.033,0.419-24.046,1.239c0,0,0-13.329,0-13.344 c0-4.698-4.263-8.45-8.922-7.856C166.44,8.555,115.06,33.834,74.449,74.447C63.276,85.621,53.076,97.878,44.131,110.88 c-3.549,5.16,0.284,12.41,6.525,12.41h10.594c-5.094,7.444-9.759,15.165-13.942,23.105H28.756c-3.122,0-5.952,1.833-7.229,4.683 C9.53,177.864,2.295,206.408,0.023,235.917c-0.35,4.54,3.352,8.529,7.897,8.529h12.748c-0.379,7.701-0.379,15.404,0,23.105 c0,0-12.725,0-12.745,0c-4.52,0-8.244,4.027-7.897,8.528c2.55,33.152,11.325,64.944,26.082,94.492 c1.341,2.685,4.085,4.382,7.086,4.382h19.324c4.679,7.971,9.854,15.694,15.477,23.105c0,0-10.568,0-10.592,0 c-6.425,0-10.195,7.585-6.311,12.707c41.479,54.697,103.797,91.206,171.942,99.893c0.334,0.043,0.669,0.064,1.001,0.064 c4.318,0,7.921-3.61,7.921-7.921v-13.344c8.012,0.819,16.067,1.239,24.046,1.239c7.979,0,16.033-0.419,24.047-1.239 c0,0,0,13.332,0,13.344c0,4.304,3.624,7.921,7.921,7.921c0.333,0,0.667-0.021,1.001-0.064 c67.948-8.702,130.585-45.358,171.941-99.891c3.875-5.108,0.096-12.708-6.31-12.708h-10.592 c5.622-7.411,10.797-15.133,15.477-23.105h19.325c3.001,0,5.745-1.696,7.085-4.382c14.758-29.548,23.532-61.339,26.082-94.49 C512.325,271.509,508.656,267.55,504.076,267.55z M71.106,374.952h15.698c6.37,0,11.552,5.182,11.552,11.552 c0,0.38-0.02,0.76-0.06,1.137c-0.558,5.293-4.797,9.676-10.091,10.321C82.002,390.654,76.283,382.955,71.106,374.952z M216.114,493.638h-0.001c-49.554-8.179-94.501-31.327-130.463-67.289c-4.001-4.001-7.88-8.162-11.61-12.452 c0,0,12.713,0,12.765,0c35.271,0,35.419-54.787,0-54.787H57.089H38.146c-11.338-23.899-18.558-49.31-21.521-75.719h12.496 c0,0,57.536,0,57.681,0c35.236,0,35.408-54.787,0-54.787H29.121H16.623c2.579-22.958,8.39-45.225,17.324-66.37h18.185 c0,0,34.557,0,34.672,0c35.04,0,35.485-54.787,0-54.787H66.313c6.005-7.642,12.475-14.939,19.338-21.8 c35.961-35.961,80.909-59.109,130.463-67.288V493.638z M36.21,255.999c0-3.792,0.103-7.656,0.308-11.552h50.286 c6.37,0,11.552,5.182,11.552,11.552c0,6.37-5.182,11.552-11.552,11.552H36.519C36.313,263.656,36.21,259.791,36.21,255.999z M65.387,146.394c4.618-7.995,9.76-15.725,15.371-23.105c0,0,6.031,0,6.046,0c14.796,0,14.942,23.105,0,23.105H65.387z M280.046,473.53c-16.016,1.755-32.076,1.755-48.092,0V38.467c16.016-1.756,32.076-1.756,48.092,0V473.53z M423.794,397.962 c-4.194-0.512-7.961-3.415-9.409-7.408c-2.698-7.445,2.814-15.602,10.81-15.602h15.698 C435.717,382.955,429.998,390.653,423.794,397.962z M473.852,359.111H454.91h-29.716c-15.105,0-27.393,12.288-27.393,27.393 c0,15.105,12.288,27.393,27.393,27.393h12.765c-3.73,4.29-7.61,8.45-11.61,12.452c-35.961,35.961-80.91,59.109-130.462,67.289 V18.36c49.553,8.179,94.501,31.327,130.462,67.288c6.861,6.861,13.332,14.159,19.337,21.8c0,0-20.453,0-20.491,0 c-32.92,0-36.501,49.978-3.795,54.525c1.257,0.175,38.467,0.262,38.467,0.262h18.184c8.933,21.144,14.744,43.411,17.324,66.37 h-12.497c0,0-57.531,0-57.682,0c-35.239,0-35.404,54.787,0,54.787h57.682h12.496C492.412,309.801,485.191,335.212,473.852,359.111 z M446.612,146.394c0,0-21.389,0-21.418,0c-14.873,0-14.881-23.105,0-23.105h6.046 C436.852,130.668,441.994,138.398,446.612,146.394z M475.789,255.999c0,3.791-0.104,7.656-0.308,11.552c0,0-50.082,0-50.286,0 c-14.919,0-14.936-23.105-0.001-23.105h50.286C475.686,248.343,475.789,252.207,475.789,255.999z"></path> </g> </g> </g><g id="SVGRepo_iconCarrier"> <g> <g> <circle cx="256.001" cy="76.406" r="12.351"></circle> </g> </g> <g> <g> <circle cx="256.001" cy="127.721" r="12.351"></circle> </g> </g> <g> <g> <circle cx="256.001" cy="416.84" r="12.351"></circle> </g> </g> <g> <g> <path d="M255.999,166.156c-6.821,0-12.351,5.53-12.351,12.351v38.817c0,6.821,5.53,12.351,12.351,12.351 c6.821,0,12.351-5.53,12.351-12.351v-38.817C268.35,171.686,262.82,166.156,255.999,166.156z"></path> </g> </g> <g> <g> <path d="M504.076,267.55h-12.745c0.191-3.892,0.299-7.756,0.299-11.552s-0.108-7.661-0.299-11.552c0,0,12.682,0,12.748,0 c4.572,0,8.247-3.984,7.897-8.529c-2.272-29.511-9.507-58.056-21.506-84.84c-1.276-2.849-4.107-4.683-7.229-4.683h-18.551 c-4.184-7.941-8.849-15.661-13.942-23.105c0,0,10.543,0,10.616,0c6.479,0,10.211-7.798,6.207-12.843 c-8.873-12.841-18.971-24.951-30.02-36C396.938,33.834,345.559,8.555,288.967,1.342c-4.664-0.595-8.922,3.163-8.922,7.856v13.344 c-8.013-0.82-16.068-1.239-24.047-1.239c-7.979,0-16.033,0.419-24.046,1.239c0,0,0-13.329,0-13.344 c0-4.698-4.263-8.45-8.922-7.856C166.44,8.555,115.06,33.834,74.449,74.447C63.276,85.621,53.076,97.878,44.131,110.88 c-3.549,5.16,0.284,12.41,6.525,12.41h10.594c-5.094,7.444-9.759,15.165-13.942,23.105H28.756c-3.122,0-5.952,1.833-7.229,4.683 C9.53,177.864,2.295,206.408,0.023,235.917c-0.35,4.54,3.352,8.529,7.897,8.529h12.748c-0.379,7.701-0.379,15.404,0,23.105 c0,0-12.725,0-12.745,0c-4.52,0-8.244,4.027-7.897,8.528c2.55,33.152,11.325,64.944,26.082,94.492 c1.341,2.685,4.085,4.382,7.086,4.382h19.324c4.679,7.971,9.854,15.694,15.477,23.105c0,0-10.568,0-10.592,0 c-6.425,0-10.195,7.585-6.311,12.707c41.479,54.697,103.797,91.206,171.942,99.893c0.334,0.043,0.669,0.064,1.001,0.064 c4.318,0,7.921-3.61,7.921-7.921v-13.344c8.012,0.819,16.067,1.239,24.046,1.239c7.979,0,16.033-0.419,24.047-1.239 c0,0,0,13.332,0,13.344c0,4.304,3.624,7.921,7.921,7.921c0.333,0,0.667-0.021,1.001-0.064 c67.948-8.702,130.585-45.358,171.941-99.891c3.875-5.108,0.096-12.708-6.31-12.708h-10.592 c5.622-7.411,10.797-15.133,15.477-23.105h19.325c3.001,0,5.745-1.696,7.085-4.382c14.758-29.548,23.532-61.339,26.082-94.49 C512.325,271.509,508.656,267.55,504.076,267.55z M71.106,374.952h15.698c6.37,0,11.552,5.182,11.552,11.552 c0,0.38-0.02,0.76-0.06,1.137c-0.558,5.293-4.797,9.676-10.091,10.321C82.002,390.654,76.283,382.955,71.106,374.952z M216.114,493.638h-0.001c-49.554-8.179-94.501-31.327-130.463-67.289c-4.001-4.001-7.88-8.162-11.61-12.452 c0,0,12.713,0,12.765,0c35.271,0,35.419-54.787,0-54.787H57.089H38.146c-11.338-23.899-18.558-49.31-21.521-75.719h12.496 c0,0,57.536,0,57.681,0c35.236,0,35.408-54.787,0-54.787H29.121H16.623c2.579-22.958,8.39-45.225,17.324-66.37h18.185 c0,0,34.557,0,34.672,0c35.04,0,35.485-54.787,0-54.787H66.313c6.005-7.642,12.475-14.939,19.338-21.8 c35.961-35.961,80.909-59.109,130.463-67.288V493.638z M36.21,255.999c0-3.792,0.103-7.656,0.308-11.552h50.286 c6.37,0,11.552,5.182,11.552,11.552c0,6.37-5.182,11.552-11.552,11.552H36.519C36.313,263.656,36.21,259.791,36.21,255.999z M65.387,146.394c4.618-7.995,9.76-15.725,15.371-23.105c0,0,6.031,0,6.046,0c14.796,0,14.942,23.105,0,23.105H65.387z M280.046,473.53c-16.016,1.755-32.076,1.755-48.092,0V38.467c16.016-1.756,32.076-1.756,48.092,0V473.53z M423.794,397.962 c-4.194-0.512-7.961-3.415-9.409-7.408c-2.698-7.445,2.814-15.602,10.81-15.602h15.698 C435.717,382.955,429.998,390.653,423.794,397.962z M473.852,359.111H454.91h-29.716c-15.105,0-27.393,12.288-27.393,27.393 c0,15.105,12.288,27.393,27.393,27.393h12.765c-3.73,4.29-7.61,8.45-11.61,12.452c-35.961,35.961-80.91,59.109-130.462,67.289 V18.36c49.553,8.179,94.501,31.327,130.462,67.288c6.861,6.861,13.332,14.159,19.337,21.8c0,0-20.453,0-20.491,0 c-32.92,0-36.501,49.978-3.795,54.525c1.257,0.175,38.467,0.262,38.467,0.262h18.184c8.933,21.144,14.744,43.411,17.324,66.37 h-12.497c0,0-57.531,0-57.682,0c-35.239,0-35.404,54.787,0,54.787h57.682h12.496C492.412,309.801,485.191,335.212,473.852,359.111 z M446.612,146.394c0,0-21.389,0-21.418,0c-14.873,0-14.881-23.105,0-23.105h6.046 C436.852,130.668,441.994,138.398,446.612,146.394z M475.789,255.999c0,3.791-0.104,7.656-0.308,11.552c0,0-50.082,0-50.286,0 c-14.919,0-14.936-23.105-0.001-23.105h50.286C475.686,248.343,475.789,252.207,475.789,255.999z"></path> </g> </g> </g></svg>